<?xml version="1.0" encoding="UTF-8" standalone="no"?>
<!-- Generator: Adobe Illustrator 16.0.0, SVG Export Plug-In . SVG Version: 6.00 Build 0)  -->

<svg
   xmlns:dc="http://purl.org/dc/elements/1.1/"
   xmlns:cc="http://creativecommons.org/ns#"
   xmlns:rdf="http://www.w3.org/1999/02/22-rdf-syntax-ns#"
   xmlns:svg="http://www.w3.org/2000/svg"
   xmlns="http://www.w3.org/2000/svg"
   xmlns:sodipodi="http://sodipodi.sourceforge.net/DTD/sodipodi-0.dtd"
   xmlns:inkscape="http://www.inkscape.org/namespaces/inkscape"
   version="1.1"
   id="Layer_1"
   x="0px"
   y="0px"
   width="106.473"
   height="176.983"
   viewBox="0 0 106.473 176.983"
   enable-background="new 0 0 418 179"
   xml:space="preserve"
   sodipodi:docname="uj-pl.svg"
   inkscape:version="0.92.1 r15371"><metadata
     id="metadata123"><rdf:RDF><cc:Work
         rdf:about=""><dc:format>image/svg+xml</dc:format><dc:type
           rdf:resource="http://purl.org/dc/dcmitype/StillImage" /></cc:Work></rdf:RDF></metadata><defs
     id="defs121" /><sodipodi:namedview
     pagecolor="#ffffff"
     bordercolor="#666666"
     borderopacity="1"
     objecttolerance="10"
     gridtolerance="10"
     guidetolerance="10"
     inkscape:pageopacity="0"
     inkscape:pageshadow="2"
     inkscape:window-width="1600"
     inkscape:window-height="836"
     id="namedview119"
     showgrid="false"
     inkscape:zoom="0.74641148"
     inkscape:cx="206.835"
     inkscape:cy="88.959"
     inkscape:window-x="0"
     inkscape:window-y="27"
     inkscape:window-maximized="1"
     inkscape:current-layer="Layer_1" /><g
     id="g42"
     transform="translate(-2.165,-1.476)"><path
       style="fill:#00539e"
       inkscape:connector-curvature="0"
       id="path2"
       d="M 108.638,125.226 C 108.637,154.624 84.803,178.459 55.4,178.459 25.998,178.46 2.165,154.63 2.165,125.228 L 2.171,61.707 108.637,61.703 Z" /><g
       id="g34"><g
         id="g18"><polygon
           style="fill:#ffcb00"
           id="polygon4"
           points="70.286,98.636 75.848,102.985 46.784,140.193 41.222,135.845 " /><path
           style="fill:#ffcb00"
           inkscape:connector-curvature="0"
           id="path6"
           d="m 34.019,160.914 c -0.966,1.153 -2.693,1.312 -3.707,0.533 l -5.643,-4.406 c -1.007,-0.788 -1.367,-2.436 -0.408,-3.664 l 0.816,-1.046 c 0.981,-1.256 2.645,-1.274 3.656,-0.459 l 5.638,4.395 c 1.023,0.809 1.27,2.535 0.487,3.573 z" /><path
           style="fill:#ffcb00"
           inkscape:connector-curvature="0"
           id="path8"
           d="M 75.774,79.562 74.03,83.33 c -0.082,0.163 -0.018,0.543 0.176,0.703 1.443,1.239 2.149,3.251 2.014,4.917 0.001,1.818 -0.611,3.104 -2.199,4.908 l 5.584,4.362 c 1.366,-1.977 2.466,-2.882 4.23,-3.319 1.584,-0.535 3.707,-0.338 5.258,0.764 0.202,0.151 0.587,0.121 0.726,0 l 3.234,-2.602 z" /><path
           style="fill:#ffcb00"
           inkscape:connector-curvature="0"
           id="path10"
           d="m 93.9,92.354 8.781,-6.829 c 0.132,-0.104 0.096,-0.621 -0.388,-0.523 l -5.399,0.502 0.038,-3.844 C 96.949,81.413 96.58,81.082 96.325,81.163 L 92.619,82.184 94.417,74 C 94.456,73.849 94.38,73.693 94.319,73.634 94.247,73.589 94.077,73.552 93.94,73.627 l -7.509,3.726 0.097,-3.844 c 0.016,-0.267 -0.394,-0.545 -0.63,-0.469 l -3.72,0.966 -0.818,-5.36 c -0.023,-0.494 -0.533,-0.404 -0.601,-0.25 l -4.505,10.172 z" /><path
           style="fill:#ffcb00"
           inkscape:connector-curvature="0"
           id="path12"
           d="m 79.501,99.554 c 1.552,1.188 -0.794,4.315 -2.408,3.08 l -6.746,-5.271 c -1.589,-1.267 0.879,-4.298 2.408,-3.08 z" /><path
           style="fill:#ffcb00"
           inkscape:connector-curvature="0"
           id="path14"
           d="m 46.681,141.562 c 1.551,1.188 -0.795,4.315 -2.407,3.081 l -6.747,-5.271 c -1.589,-1.267 0.878,-4.301 2.407,-3.081 z" /><rect
           style="fill:#ffcb00"
           id="rect16"
           height="13.039"
           width="7.072"
           transform="matrix(-0.788,-0.6157,0.6157,-0.788,-26.4199,286.9947)"
           y="141.52699"
           x="32.668999" /></g><path
         style="fill:#ffcb00"
         inkscape:connector-curvature="0"
         id="path20"
         d="m 60.565,124.258 9.143,11.704 -5.563,4.349 -8.059,-10.32 z M 40.461,98.52 54.753,116.815 50.274,122.55 34.899,102.868 Z" /><path
         style="fill:#ffcb00"
         inkscape:connector-curvature="0"
         id="path22"
         d="m 76.912,161.03 c 0.965,1.153 2.693,1.312 3.706,0.533 l 5.642,-4.406 c 1.008,-0.787 1.368,-2.438 0.409,-3.664 l -0.816,-1.044 c -0.982,-1.258 -2.645,-1.275 -3.655,-0.461 l -5.638,4.394 c -1.023,0.812 -1.271,2.538 -0.487,3.576 z" /><path
         style="fill:#ffcb00"
         inkscape:connector-curvature="0"
         id="path24"
         d="m 34.975,79.444 1.742,3.768 c 0.082,0.163 0.018,0.544 -0.176,0.705 -1.443,1.238 -2.15,3.25 -2.014,4.916 -10e-4,1.818 0.611,3.104 2.198,4.907 l -5.584,4.364 c -1.366,-1.977 -2.465,-2.883 -4.23,-3.32 -1.585,-0.536 -3.707,-0.338 -5.257,0.765 -0.203,0.149 -0.587,0.117 -0.726,0 l -3.235,-2.604 z" /><path
         style="fill:#ffcb00"
         inkscape:connector-curvature="0"
         id="path26"
         d="M 16.846,92.24 8.065,85.408 C 7.933,85.303 7.968,84.788 8.453,84.884 l 5.399,0.503 -0.037,-3.844 c -0.017,-0.246 0.352,-0.578 0.607,-0.496 l 3.706,1.022 -1.798,-8.187 c -0.04,-0.151 0.037,-0.308 0.097,-0.367 0.071,-0.045 0.243,-0.081 0.38,-0.006 l 7.509,3.726 -0.096,-3.843 c -0.016,-0.268 0.394,-0.545 0.629,-0.47 l 3.721,0.967 0.818,-5.361 c 0.023,-0.494 0.532,-0.404 0.603,-0.25 l 4.502,10.172 z" /><path
         style="fill:#ffcb00"
         inkscape:connector-curvature="0"
         id="path28"
         d="m 31.246,99.438 c -1.552,1.188 0.794,4.314 2.408,3.079 L 40.4,97.246 c 1.589,-1.267 -0.879,-4.299 -2.406,-3.081 z" /><path
         style="fill:#ffcb00"
         inkscape:connector-curvature="0"
         id="path30"
         d="m 64.249,141.678 c -1.55,1.188 0.795,4.316 2.408,3.081 l 6.746,-5.271 c 1.589,-1.268 -0.878,-4.3 -2.408,-3.081 z" /><rect
         style="fill:#ffcb00"
         id="rect32"
         height="13.038"
         width="7.072"
         transform="matrix(0.788,-0.6157,0.6157,0.788,-75.3819,77.4233)"
         y="141.644"
         x="71.188004" /></g><g
       id="g40"><path
         style="fill:#00539e"
         inkscape:connector-curvature="0"
         id="path36"
         d="M 23.046,56.79 20.382,49.6 14.951,35.304 C 11.01,24.927 7.043,14.48 6.881,14.15 L 6.528,13.118 c 0,0 0.161,-0.481 0.513,-0.61 0.258,-0.16 2.056,0.803 3.832,1.366 1.24,0.393 2.73,1.053 4.51,1.453 1.879,0.44 2.656,0.781 3.965,2.58 0.601,0.952 0.594,2.458 0.557,3.472 1.718,-3.142 4.189,-5.175 8.147,-4.582 4.689,0.585 6.592,6.915 3.902,9.489 -0.829,0.985 -2.683,2.74 -0.861,3.787 0.378,0.151 0.83,0.045 0.83,0.045 0,0 -0.187,0.981 -0.493,1.422 -0.882,1.292 -4.195,2.745 -5.922,0.273 -0.732,-1.144 -0.86,-1.792 -0.563,-3.073 l 0.273,-1.117 c -0.027,-0.689 -0.924,-1.121 -1.828,-0.854 -0.34,0.121 -1.045,0.666 -1.169,2.687 -0.366,5.006 2.704,11.577 9.495,9.768 3.419,-0.912 4.329,-2.208 4.453,-4.101 -1.501,-0.506 -2.581,-1.923 -2.581,-3.594 0,-2.095 1.438,-3.792 3.533,-3.792 2.094,0 3.792,1.697 3.792,3.792 0,1.175 -0.534,2.223 -1.371,2.917 0.791,1.816 1.797,2.852 5.441,2.529 7,-0.623 7.848,-7.884 5.792,-12.463 -0.82,-1.886 -1.686,-2.134 -2.035,-2.123 -0.933,0.066 -1.617,0.774 -1.408,1.427 l 0.64,0.957 c 0.716,1.101 0.817,1.754 0.521,3.08 -0.777,2.913 -4.388,2.68 -5.657,1.768 -0.539,-0.404 -0.963,-1.252 -0.963,-1.252 0,0 0.663,-0.027 0.777,-0.241 1.362,-1.617 -1.013,-2.63 -2.128,-3.279 -3.384,-1.521 -3.759,-8.097 0.453,-10.241 3.362,-1.826 5.751,-0.992 8.197,0.776 0.25,0.18 0.469,0.452 0.634,0.633 -0.144,-0.33 -0.193,-0.382 -0.359,-0.714 -0.17,-0.367 -0.369,-0.787 -0.401,-1.252 -0.229,-1.426 0.023,-2.916 0.641,-4.033 0.618,-1.065 1.492,-1.933 2.25,-2.893 0.822,-1.038 1.753,-2.318 2.591,-4.402 0.132,-0.231 0.409,-1.019 0.613,-1.136 0.066,-0.056 0.144,-0.091 0.3,-0.111 0.157,0.02 0.255,0.055 0.32,0.111 0.204,0.117 0.481,0.905 0.614,1.136 0.837,2.084 1.769,3.364 2.59,4.402 0.759,0.96 1.633,1.828 2.25,2.893 0.617,1.117 0.87,2.607 0.641,4.033 -0.033,0.465 -0.232,0.885 -0.402,1.252 -0.167,0.332 -0.216,0.384 -0.358,0.714 0.164,-0.181 0.384,-0.453 0.634,-0.633 2.446,-1.768 4.835,-2.602 8.196,-0.776 4.213,2.144 3.838,8.719 0.453,10.241 -1.114,0.649 -3.49,1.663 -2.127,3.279 0.114,0.214 0.777,0.241 0.777,0.241 0,0 -0.425,0.849 -0.964,1.252 -1.27,0.913 -4.88,1.146 -5.657,-1.768 -0.297,-1.326 -0.195,-1.979 0.521,-3.08 l 0.64,-0.957 c 0.208,-0.653 -0.475,-1.361 -1.408,-1.427 -0.351,-0.012 -1.215,0.237 -2.036,2.123 -2.056,4.58 -1.208,11.841 5.791,12.463 3.646,0.323 4.65,-0.712 5.44,-2.529 -0.835,-0.695 -1.37,-1.743 -1.37,-2.917 0,-2.095 1.698,-3.792 3.792,-3.792 2.094,0 3.532,1.697 3.532,3.792 0,1.671 -1.079,3.088 -2.58,3.594 0.123,1.892 1.034,3.188 4.453,4.101 6.791,1.809 9.86,-4.762 9.494,-9.768 -0.125,-2.021 -0.828,-2.566 -1.169,-2.687 -0.905,-0.267 -1.801,0.165 -1.829,0.854 l 0.274,1.117 c 0.296,1.281 0.169,1.929 -0.563,3.073 -1.727,2.472 -5.041,1.02 -5.922,-0.273 -0.307,-0.44 -0.493,-1.422 -0.493,-1.422 0,0 0.451,0.106 0.83,-0.045 1.822,-1.046 -0.033,-2.802 -0.861,-3.787 -2.692,-2.574 -0.788,-8.904 3.901,-9.489 3.958,-0.593 6.429,1.44 8.146,4.582 -0.035,-1.015 -0.042,-2.52 0.56,-3.472 1.309,-1.799 2.084,-2.14 3.964,-2.58 1.779,-0.399 3.269,-1.06 4.509,-1.453 1.776,-0.563 3.576,-1.526 3.832,-1.366 0.353,0.129 0.514,0.61 0.514,0.61 l -0.354,1.032 c -0.162,0.33 -4.128,10.776 -8.069,21.152 l -5.431,14.296 -2.664,7.19 H 23.046 Z" /><path
         style="fill:#ffcb00"
         inkscape:connector-curvature="0"
         id="path38"
         d="M 23.765,55.552 C 23.682,55.459 8.152,14.414 7.83,13.754 c 1.028,0.319 3.64,1.79 7.306,2.613 1.211,0.283 2.017,0.342 3.327,2.141 0.704,1.117 0.569,2.851 0.368,3.838 0.16,0.492 1.02,0.859 1.459,0.298 1.104,-1.917 2.703,-5.524 7.522,-4.801 3.941,0.48 5.322,5.85 3.282,7.72 -0.745,0.896 -3.562,3.66 -0.622,5.35 -0.706,1.036 -3.1,1.85 -4.196,0.279 -0.806,-1.261 -0.597,-1.452 -0.117,-3.469 0.096,-1.984 -2.157,-2.241 -3.128,-1.954 -0.906,0.296 -1.748,1.344 -1.885,3.577 -0.376,5.14 3.161,12.963 11.032,10.866 4.423,-1.179 4.858,-3.339 4.896,-5.99 -1.446,-0.081 -2.594,-1.279 -2.594,-2.745 0,-1.52 1.231,-2.75 2.75,-2.75 1.519,0 2.75,1.231 2.75,2.75 0,1.095 -0.64,2.039 -1.566,2.482 0.062,0.257 0.217,0.645 0.319,0.901 0.914,2.098 2.258,3.578 6.35,3.213 8.115,-0.721 8.762,-9.283 6.652,-13.983 -0.894,-2.052 -2.043,-2.748 -2.996,-2.716 -1.012,0.063 -3.04,1.076 -2.271,2.907 1.14,1.731 1.402,1.839 1.076,3.299 -0.493,1.851 -3.021,1.905 -4.04,1.172 2.185,-2.593 -1.407,-4.227 -2.412,-4.814 -2.558,-1.059 -3.096,-6.578 0.442,-8.378 4.282,-2.326 7.017,0.517 8.71,1.941 0.604,0.377 1.287,-0.263 1.269,-0.779 -0.428,-0.699 -1.379,-1.643 -1.421,-2.751 -0.203,-1.219 0.014,-2.472 0.512,-3.371 1.011,-1.745 3.052,-3.055 4.85,-7.305 1.798,4.25 3.831,5.56 4.842,7.305 0.498,0.899 0.715,2.152 0.512,3.371 -0.042,1.109 -0.995,2.053 -1.421,2.751 -0.019,0.517 0.664,1.156 1.268,0.779 1.694,-1.424 4.429,-4.267 8.71,-1.941 3.539,1.8 2.999,7.319 0.443,8.378 -1.005,0.587 -4.597,2.221 -2.413,4.814 -1.018,0.732 -3.545,0.679 -4.04,-1.172 -0.326,-1.46 -0.065,-1.568 1.077,-3.299 0.769,-1.831 -1.261,-2.843 -2.272,-2.907 -0.953,-0.032 -2.103,0.665 -2.995,2.716 -2.111,4.701 -1.463,13.262 6.651,13.983 4.091,0.364 5.436,-1.115 6.349,-3.213 0.102,-0.256 0.258,-0.644 0.319,-0.901 -0.926,-0.443 -1.566,-1.387 -1.566,-2.482 0,-1.52 1.231,-2.75 2.751,-2.75 1.519,0 2.75,1.231 2.75,2.75 0,1.466 -1.149,2.664 -2.594,2.745 0.038,2.65 0.473,4.811 4.896,5.99 7.871,2.097 11.408,-5.726 11.033,-10.866 -0.137,-2.232 -0.979,-3.281 -1.886,-3.577 -0.973,-0.287 -3.225,-0.03 -3.128,1.954 0.479,2.017 0.688,2.208 -0.118,3.469 -1.097,1.571 -3.49,0.757 -4.196,-0.279 2.939,-1.69 0.123,-4.454 -0.621,-5.35 -2.04,-1.87 -0.661,-7.24 3.281,-7.72 4.82,-0.723 6.418,2.884 7.521,4.801 0.439,0.561 1.3,0.193 1.459,-0.298 -0.199,-0.987 -0.336,-2.721 0.369,-3.838 1.31,-1.799 2.116,-1.858 3.326,-2.141 3.667,-0.823 6.278,-2.293 7.307,-2.613 -0.323,0.66 -15.852,41.705 -15.936,41.798 H 23.765 Z" /></g></g></svg>